<svg width="84" height="58" viewBox="0 0 84 58" fill="none" xmlns="http://www.w3.org/2000/svg">
<path d="M0 28.9999C0 28.9999 6.10352e-05 14.5001 9.00006 7C18.0001 -0.500149 35 0.499891 35 0.499891V9C35 9 20.5001 9 15.0001 14.5C9.00006 20.5 10 28.9999 10 28.9999H35V58H0V28.9999Z" fill="#FFC83B"/>
<path d="M49.0001 28.5443C49.0001 28.5443 49.0001 14.0446 58.0001 6.54443C67.0001 -0.955715 84 0.0443249 84 0.0443249V8.54443C84 8.54443 69.5001 8.54443 64.0001 14.0444C58.0001 20.0444 59.0001 28.5443 59.0001 28.5443H84V57.5444H49.0001V28.5443Z" fill="#FFC83B"/>
</svg>
