<svg width="285" height="109" viewBox="0 0 285 109" fill="none" xmlns="http://www.w3.org/2000/svg">
<path d="M44.6952 28.5521C36.6227 29.969 29.1166 35.3531 25.2574 42.5084C23.3808 45.9798 22 51.2577 22 55.0124C22 62.4865 25.6468 70.3502 31.418 75.3093C32.1615 75.9824 32.8696 76.5845 32.9759 76.7262C33.5424 77.3284 37.7557 79.5954 39.7384 80.3393C54.9984 86.0777 71.9933 76.372 75.3214 60.0424C76.9501 51.8953 74.0822 42.3313 68.2756 36.5929C64.2748 32.6611 60.7696 30.6066 55.8127 29.1897C52.9094 28.375 47.4215 28.0562 44.6952 28.5521ZM54.6797 32.6256C57.1582 33.2278 61.3715 35.2469 63.071 36.6283L64.2748 37.6556L63.3188 38.8954C62.115 40.4539 58.539 43.146 55.8835 44.5275C51.9535 46.5111 52.4846 46.7237 49.6521 42.0479C48.2712 39.7809 46.2885 36.7346 45.2971 35.3177C44.3058 33.9008 43.5977 32.6611 43.7039 32.5548C44.1287 32.1297 48.0234 31.7755 50.3248 31.9526C51.5994 32.0235 53.5467 32.3423 54.6797 32.6256ZM41.4025 37.2659C43.9517 41.0207 47.4923 46.8299 47.4923 47.2904C47.4923 48.0697 39.0657 49.6283 31.8075 50.195C28.9396 50.4076 26.4966 50.4784 26.3549 50.3367C25.8947 49.8762 27.842 45.0234 29.4707 42.5084C30.3912 41.1624 31.8783 39.285 32.8342 38.3994C34.7108 36.6283 38.1805 34.1842 38.8533 34.1842C39.1011 34.1842 40.2341 35.5657 41.4025 37.2659ZM68.3819 42.5793C69.1962 43.8545 70.2584 46.0506 70.7541 47.4321C71.6746 50.1242 72.2765 54.7291 71.6746 54.7291C71.4622 54.7291 70.4354 54.552 69.4086 54.3394C68.3465 54.1269 64.8767 53.9852 61.6547 53.9852H55.8127L54.8214 51.8244C54.2903 50.6201 53.9008 49.6283 53.9362 49.5928C54.007 49.5574 55.5295 48.7427 57.3352 47.7863C60.7342 46.0506 64.4164 43.2523 65.9388 41.3395C66.3991 40.7373 66.824 40.2414 66.8594 40.2414C66.8594 40.206 67.5675 41.2686 68.3819 42.5793ZM50.6435 53.0288C51.0683 54.0206 51.2808 54.9416 51.1391 55.0833C50.9621 55.225 49.6875 55.7563 48.2712 56.2876C43.0666 58.2713 36.8705 63.2658 33.3299 68.2957L31.6304 70.7045L30.3204 69.0042C27.842 65.7454 26.2133 61.4238 25.7176 56.6419L25.4698 54.4811L31.3472 54.0915C36.9059 53.6664 45.6512 52.3204 47.5277 51.5765C49.3334 50.8326 49.8291 51.0806 50.6435 53.0288ZM69.0192 58.1296C70.5062 58.4484 71.7808 58.7318 71.8162 58.7672C71.8516 58.8026 71.6746 59.6527 71.3914 60.68C70.6478 63.5492 68.9129 66.9851 67.001 69.3938C65.3015 71.4837 62.5399 74.2112 62.0796 74.2112C61.938 74.2112 61.4777 72.511 61.0174 70.3857C60.5571 68.2957 59.5658 64.6827 58.7868 62.3094C58.0433 59.9715 57.406 57.9171 57.406 57.8108C57.406 57.3149 66.3283 57.5628 69.0192 58.1296ZM54.3611 62.7699C55.7773 67.0914 57.229 72.5464 57.583 74.9905L57.8309 76.62L55.9189 77.1513C54.8922 77.4347 53.5821 77.7889 53.0157 77.8952C51.1391 78.3556 45.4388 78.1431 43.1728 77.5764C40.5881 76.9033 36.127 74.8134 35.2418 73.8216C34.6399 73.184 34.6753 73.0777 35.9854 71.2004C37.8619 68.4729 42.6417 64.0451 45.545 62.3448C48.2004 60.8217 52.0243 59.0151 52.697 58.9797C52.9094 58.9797 53.653 60.68 54.3611 62.7699Z" fill="white" fill-opacity="0.4"/>
<path d="M225.939 33.3319C221.997 35.2784 219.954 44.8686 221.427 54.7435C222.234 60.0608 222.139 60.4406 220.002 60.4406C219.384 60.4406 218.909 60.2507 218.909 59.9659C218.909 59.1113 215.584 55.8355 214.159 55.2183C212.449 54.5062 211.499 55.0759 211.072 57.1648C210.644 59.0164 212.354 62.5296 214.207 63.6215C215.727 64.5236 215.917 65.4256 214.919 67.7044C213.399 71.3601 209.884 72.2621 207.462 69.6035C204.897 66.7074 204.422 62.0073 206.274 57.4022C209.552 49.1889 211.214 39.4563 209.884 36.228C208.839 33.7117 205.467 32.6198 203.329 34.139C200.527 36.0855 199.244 41.4028 199.244 51.7526C199.197 58.8739 199.149 59.4911 198.247 60.1558C196.869 61.2003 196.394 61.1053 195.729 59.5386C195.112 58.1143 191.312 55.2183 190.124 55.2183C189.744 55.2183 189.127 55.7405 188.747 56.3577C187.607 58.0668 188.557 61.0578 190.979 63.4791C192.832 65.3306 192.879 65.4256 192.309 67.2297C190.694 72.6894 185.279 72.7369 182.999 67.3246C182.144 65.2357 182.144 60.2982 182.999 58.6366C183.997 56.69 186.039 50.2333 186.847 46.2928C187.749 41.9251 187.749 38.5543 186.894 36.4653C185.089 32.24 179.674 33.2845 177.869 38.2694C176.634 41.5927 176.064 47.907 176.397 53.8415L176.729 59.3487L175.447 60.3457C173.737 61.7225 173.452 61.675 173.072 59.9659C172.739 58.3992 170.507 56.4052 168.512 55.9304C166.849 55.5031 165.709 56.69 165.709 58.8265C165.709 60.8679 166.279 62.0548 168.322 64.2387C169.889 65.8529 169.889 65.9478 169.272 67.7519C167.229 73.544 161.862 73.2116 159.772 67.1822C158.727 64.0013 158.869 61.5326 160.437 57.8295C162.859 52.0374 164.379 45.1059 164.189 40.5957C164.047 36.8926 163.952 36.5603 162.669 35.4209C160.817 33.8542 157.919 34.0915 156.399 35.9906C154.214 38.7442 153.122 45.7706 153.549 54.5536C153.834 61.2003 153.454 63.669 151.364 67.7994C147.897 74.6834 145.807 72.7369 145.332 62.3871C144.999 55.5031 144.714 54.791 142.339 55.3607C140.772 55.788 140.534 56.5001 140.249 61.6275C139.917 67.4196 139.822 67.7994 137.874 69.9358C134.407 73.7339 133.219 72.1672 133.314 63.9538C133.409 56.8325 133.172 56.4052 128.707 55.6456C126.569 55.2658 125.239 54.6961 124.147 53.7465C121.154 51.1354 119.634 52.0849 119.634 56.6426C119.587 66.4226 116.024 74.3036 112.937 71.55C110.847 69.6984 110.609 68.2267 111.797 64.666C114.172 57.7345 115.027 52.7495 114.789 47.005C114.552 41.3553 114.029 39.5987 111.654 37.035C109.279 34.5188 105.289 35.6582 103.437 39.4088C102.392 41.5453 102.297 42.2099 102.344 49.1414L102.392 56.6426L101.299 56.3577C100.729 56.2153 99.0669 56.4052 97.5944 56.8325C87.5244 59.776 88.7594 76.44 99.2094 77.437C102.724 77.7693 104.767 77.1996 106.857 75.3006L108.709 73.6389L109.707 74.8733C114.362 80.8078 121.012 75.3006 123.387 63.5266C123.862 61.0578 124.479 59.2537 124.812 59.3012C125.097 59.3487 125.714 59.3962 126.189 59.4436C127.804 59.5861 128.232 60.2982 128.469 63.3367C128.897 69.8409 129.182 71.5975 130.084 73.5914C131.842 77.5794 135.832 77.8168 139.774 74.2086L141.769 72.3571L142.624 73.7813C143.717 75.6329 146.329 76.7723 148.467 76.345C150.652 75.9652 152.932 73.8288 154.309 70.9328C154.927 69.6035 155.592 68.5115 155.734 68.5115C155.924 68.5115 156.209 69.1287 156.352 69.8883C156.732 71.6924 159.344 74.6359 161.292 75.443C166.279 77.5319 171.267 74.6359 173.119 68.559C173.784 66.2802 174.212 65.7105 175.684 64.8559L177.489 63.9064L178.724 67.2772C180.197 71.2177 182.287 74.0662 184.519 74.9682C189.174 76.9148 194.399 73.9713 196.014 68.4641C196.632 66.2802 197.107 65.6155 198.579 64.8084C200.669 63.574 200.859 63.5266 200.859 64.4761C200.859 65.9478 202.949 70.553 204.327 72.1197C206.179 74.2561 207.937 75.1581 210.359 75.1581C214.587 75.1581 217.912 72.3571 219.194 67.657C219.859 65.2357 220.144 64.8559 221.474 64.4286L223.042 63.9538L224.562 67.1822C227.982 74.2561 233.397 76.5349 238.622 72.9743L240.427 71.7874L242.612 72.6894C249.499 75.6329 256.577 73.6864 260.804 67.6095C261.802 66.1852 262.609 64.666 262.609 64.2387C262.609 63.3841 260.899 60.9154 260.282 60.9154C260.092 60.9154 259.522 61.8174 258.952 62.9569C256.624 67.7519 253.489 69.9358 248.977 69.9358C244.749 69.9358 244.559 69.5085 247.314 66.7549C250.164 63.9064 251.162 62.0548 251.542 59.1113C251.874 56.1678 250.829 53.6516 248.739 52.3697C244.512 49.806 238.527 52.892 236.959 58.4941C236.294 60.9629 236.389 64.9508 237.197 66.8974C237.862 68.5115 237.862 68.559 236.342 69.461C234.394 70.6479 232.922 70.6479 231.259 69.461C229.882 68.4641 227.459 64.1912 227.459 62.7195C227.459 62.2447 228.219 60.8204 229.122 59.5386C234.489 52.0849 235.867 35.4683 231.307 33.5693C229.027 32.6673 227.412 32.5723 225.939 33.3319ZM229.359 37.4149C230.404 38.6492 230.547 44.3938 229.597 48.1919C228.789 51.6101 226.794 56.4052 225.987 56.9274C225.227 57.3547 224.894 54.5536 224.847 48.3343C224.847 43.4443 225.037 41.6877 225.702 39.9311C226.842 36.9876 228.219 36.0381 229.359 37.4149ZM206.369 39.8361C206.749 41.8301 205.942 47.005 204.517 51.4202L203.519 54.5062L203.139 52.1324C202.664 48.904 203.424 40.7382 204.422 39.2664C205.467 37.6997 205.989 37.8421 206.369 39.8361ZM183.522 40.1685C183.854 41.8301 183.237 46.1504 182.049 50.4707C180.957 54.5062 180.862 54.6486 180.434 53.5566C179.437 51.1354 180.339 40.9755 181.717 39.4563C182.809 38.2219 183.189 38.3644 183.522 40.1685ZM160.199 42.6847C160.199 46.1504 158.299 54.7435 157.587 54.7435C157.017 54.7435 157.064 45.011 157.682 42.3998C158.727 37.8421 160.247 38.032 160.199 42.6847ZM109.564 40.5957C110.229 41.4503 111.084 46.3403 111.084 49.5687C111.084 54.1264 109.137 62.0073 108.234 61.1053C107.569 60.4406 106.287 54.8385 106.002 51.4202C105.669 47.2424 106.144 43.3968 107.284 41.5453C108.282 39.8836 108.804 39.6937 109.564 40.5957ZM246.839 56.2628C247.599 57.0224 247.552 59.2537 246.744 60.8204C246.364 61.5326 245.082 63.0518 243.894 64.1912L241.757 66.2802L241.234 64.9983C240.617 63.2892 240.617 60.1558 241.282 58.8739C242.754 56.0254 245.367 54.791 246.839 56.2628ZM103.057 61.2952C103.437 61.77 104.387 63.6215 105.099 65.4731C106.572 69.3661 106.382 70.458 103.959 72.452C101.109 74.8733 96.9769 73.8763 95.1719 70.4106C93.5094 67.2297 95.0294 61.9124 97.9269 60.678C99.6844 59.8709 101.964 60.2033 103.057 61.2952Z" fill="white" fill-opacity="0.4"/>
<path d="M140.107 46.008C138.825 47.6222 138.872 48.5717 140.107 50.1859C141.437 51.895 144.05 51.7526 145.427 49.901C147.992 46.4353 142.767 42.6372 140.107 46.008Z" fill="white" fill-opacity="0.4"/>
</svg>
