<svg width="253" height="109" viewBox="0 0 253 109" fill="none" xmlns="http://www.w3.org/2000/svg">
<path d="M193.942 48.8934V68.7501H197.192H200.441V61.702V54.6539H201.24H202.025L206.682 61.702L211.339 68.7501H215.035H218.718L217.851 67.4896C212.774 60.1297 208.253 53.4611 208.212 53.2985C208.171 53.1629 208.469 52.9461 209.106 52.6479C212.165 51.1976 214.778 48.1615 215.97 44.6916C216.335 43.6073 216.687 41.7504 216.687 40.8829V40.2866H213.438H210.189V40.6525C210.175 40.8694 210.094 41.52 209.986 42.1164C209.322 45.8708 206.168 48.3648 201.7 48.6494L200.441 48.7308V38.8769V29.0367H197.192H193.942V48.8934Z" fill="white" fill-opacity="0.4"/>
<path d="M81.9786 39.6224C78.0389 40.4763 74.8709 42.7399 72.7183 46.2504C72.0684 47.3076 71.378 48.9341 71.2155 49.8015C71.1614 50.0862 71.0666 50.3166 71.0124 50.3166C70.6875 50.3166 68.6297 44.7459 67.8986 41.8724L67.4518 40.151H61.725H55.9847V47.6464C55.9847 51.9024 55.9305 55.6298 55.8493 56.2804C55.4432 59.6418 53.9945 62.0137 51.693 63.0845C50.8807 63.464 50.6234 63.5182 49.2696 63.5725C47.997 63.6267 47.5908 63.586 46.8056 63.342C44.2874 62.583 42.541 60.4279 41.8911 57.3105C41.6609 56.1855 41.6339 55.3587 41.6339 48.1073V40.151H38.3169H35V48.1344C35 53.0816 35.0542 56.5243 35.1489 57.1749C35.6769 61.0243 37.7483 64.7517 40.5643 66.9203C45.8308 71.0001 53.8185 70.4715 58.3675 65.7411C59.9109 64.1417 60.8992 62.5017 61.5896 60.4144C62.3749 58.0424 62.3884 57.8933 62.4696 51.2654C62.5103 47.8769 62.5915 45.1931 62.6321 45.3016C62.6863 45.41 63.0383 46.4808 63.4173 47.6735C64.5952 51.3602 66.4229 55.2503 68.4401 58.3813L69.2389 59.6147L67.4924 69.604C66.5177 75.107 65.7324 79.7018 65.7324 79.8102C65.7324 79.9729 66.2604 80 69.0494 80C70.8771 80 72.3663 79.9729 72.3663 79.9458C72.3663 79.9051 72.8266 77.0859 73.3817 73.6702C73.9368 70.2546 74.4648 67.0559 74.546 66.5408C74.6272 66.0393 74.7355 65.6327 74.7761 65.6327C74.8303 65.6327 75.3583 65.9986 75.954 66.4595C78.0119 68.0182 80.8414 69.1974 83.4002 69.5634C86.8796 70.0513 90.7787 69.1432 93.7707 67.1236C95.6796 65.836 97.6156 63.6131 98.6581 61.4987C100.675 57.4596 100.77 52.187 98.9153 48.0802C97.399 44.7459 94.407 41.8724 91.0088 40.4763C89.2353 39.758 87.7731 39.4733 85.3633 39.4056C83.5762 39.3513 83.0753 39.3784 81.9786 39.6224ZM88.0439 45.7895C90.1017 46.4808 91.6181 47.8226 92.6199 49.8286C93.4458 51.5229 93.6624 52.6343 93.5947 54.925C93.5405 56.4837 93.4728 56.9174 93.1479 57.8933C92.3762 60.1568 90.9547 61.824 88.951 62.7863C86.4599 63.9791 83.8605 63.9384 81.0851 62.6508C80.4759 62.3662 79.6229 61.8918 79.1897 61.5936C78.3774 61.0379 76.7257 59.4114 76.1706 58.6117L75.8592 58.1644L76.1571 56.3888C77.4432 48.6494 80.6112 45.0712 85.9048 45.3829C86.5953 45.4236 87.4482 45.5862 88.0439 45.7895Z" fill="white" fill-opacity="0.4"/>
<path d="M154.004 39.5411C148.48 40.5441 143.945 44.7188 142.415 50.2082C141.941 51.916 141.792 55.8195 142.144 57.69C143.214 63.3421 147.492 67.9504 153.029 69.3736C154.667 69.8073 157.24 69.9429 158.891 69.6989C164.266 68.9128 168.991 65.0228 170.737 59.8993C171.766 56.9174 171.875 53.3934 171.049 50.2217C170.033 46.3181 167.028 42.6992 163.291 40.8965C160.489 39.5411 156.915 39.026 154.004 39.5411ZM159.013 45.776C161.761 46.5079 163.995 48.8256 164.753 51.7398C165.065 52.9054 165.173 54.9385 164.984 56.1448C164.55 58.9099 163.237 61.0379 161.125 62.4068C160.123 63.0574 158.932 63.4234 157.24 63.6267C156.129 63.7487 155.777 63.7351 154.911 63.5454C151.905 62.8677 149.658 60.6177 148.778 57.3647C148.399 55.9957 148.44 53.1629 148.832 51.7398C149.969 47.7549 153.246 45.288 157.118 45.5049C157.754 45.5456 158.607 45.6675 159.013 45.776Z" fill="white" fill-opacity="0.4"/>
<path d="M187.241 40.0291C185.115 40.3408 183.436 41.0999 182.015 42.4282L181.081 43.2956V41.7911V40.2866H177.831H174.582V54.4506V68.6146H177.831H181.081V62.6779C181.094 52.3497 181.392 50.3166 183.26 48.3513C184.56 46.9823 186.374 46.3724 189.298 46.3317L190.964 46.3182V43.0923V39.88L189.515 39.8935C188.703 39.9071 187.687 39.9613 187.241 40.0291Z" fill="white" fill-opacity="0.4"/>
<path d="M100.175 40.517C100.323 41.032 107.431 68.6146 107.431 68.6824C107.431 68.723 109.218 68.7501 111.398 68.7501H115.351L118.045 58.815C119.535 53.3662 120.794 48.7985 120.848 48.6901C120.97 48.4461 120.78 47.8226 123.88 59.2894L126.439 68.7501H130.379H134.319L138.15 54.681C140.262 46.9552 142.022 40.5441 142.049 40.4492C142.103 40.3272 141.359 40.2866 138.597 40.2866H135.077L134.928 40.9236C134.738 41.8317 130.609 58.937 130.42 59.6011C130.298 60.0484 130.257 60.1026 130.176 59.8722C130.122 59.7231 128.957 55.2503 127.59 49.9371L125.112 40.2866H120.902H116.705L114.214 50.0184C112.847 55.3587 111.682 59.8315 111.615 59.94C111.533 60.0891 111.493 60.062 111.439 59.8044C111.384 59.6147 110.315 55.1689 109.056 49.9235C107.783 44.6781 106.754 40.3679 106.754 40.3408C106.754 40.3137 105.251 40.2866 103.424 40.2866C100.323 40.2866 100.107 40.3001 100.175 40.517Z" fill="white" fill-opacity="0.4"/>
</svg>
