<svg width="285" height="114" viewBox="0 0 285 114" fill="none" xmlns="http://www.w3.org/2000/svg">
<path d="M32.8701 56.567V76.3916L43.0161 76.3347C48.8111 76.3063 53.5611 76.2399 54.1026 76.183C54.6251 76.1261 55.6416 75.965 56.3636 75.8133C62.0541 74.6092 65.2366 71.6986 66.0726 66.9297C66.2531 65.8868 66.2531 63.9337 66.0726 62.8908C65.6546 60.4732 64.4196 58.1409 62.8996 56.8799C62.0826 56.2068 61.0376 55.5905 60.0876 55.2302C59.6696 55.0785 59.2516 54.9174 59.1566 54.8794C59.0141 54.8225 59.1471 54.7088 59.8216 54.3106C61.3321 53.4194 62.5576 52.2343 63.3651 50.9164C64.7616 48.6031 64.7236 44.1281 63.2701 41.4071C62.1966 39.3971 60.0686 38.0129 56.9906 37.3113C54.6631 36.7899 55.3946 36.8183 43.7286 36.7804L32.8701 36.7425V56.567ZM51.8416 43.5782C52.2121 43.6256 52.8771 43.8057 53.3141 43.9669C53.9791 44.2229 54.1976 44.3651 54.7296 44.896C55.5751 45.7304 55.7746 46.2613 55.8316 47.7498C55.9266 50.0726 55.2616 51.3525 53.5516 52.1679C52.3641 52.7273 52.0601 52.7557 46.6261 52.7936L41.7051 52.8316V48.1575V43.4834H46.4361C49.0296 43.4834 51.4616 43.5308 51.8416 43.5782ZM53.2286 58.8804C54.4921 59.1838 55.2806 59.582 55.9646 60.2551C57.0286 61.3264 57.4181 62.4262 57.4181 64.3414C57.4181 65.3748 57.3801 65.6213 57.1616 66.285C56.8671 67.1572 56.4776 67.7261 55.7461 68.3518C54.9861 68.9965 54.1976 69.3283 52.8866 69.5559C51.8511 69.7265 51.3381 69.7455 46.7306 69.7455H41.7051V64.1897V58.6433L47.1486 58.6813C51.7561 58.7192 52.6776 58.7476 53.2286 58.8804Z" fill="white" fill-opacity="0.4"/>
<path d="M100.891 56.6144V76.4769H104.824H108.757L108.804 67.9157C108.833 62.521 108.89 59.1364 108.956 58.7476C109.517 55.3819 110.714 53.9029 113.326 53.3814C114.4 53.1729 115.977 53.2392 116.832 53.5331C118.304 54.0451 119.121 55.1733 119.615 57.3919C119.824 58.3115 119.834 58.4253 119.862 67.3942L119.9 76.4769H123.843H127.785L127.747 66.2565C127.719 57.1454 127.7 55.9318 127.548 55.0216C127.139 52.4618 126.294 50.6225 124.964 49.3521C123.377 47.8636 121.582 47.1715 118.751 46.9724C116.48 46.8112 114.96 47.1051 112.87 48.0816C111.341 48.8117 110.258 49.7218 109.346 51.0776C109.127 51.381 108.918 51.637 108.871 51.637C108.814 51.637 108.776 48.897 108.776 44.1945V36.7519H104.833H100.891V56.6144Z" fill="white" fill-opacity="0.4"/>
<path d="M75.1454 41.3976V43.2938H83.2205H91.2955V41.3976V39.5015H83.2205H75.1454V41.3976Z" fill="white" fill-opacity="0.4"/>
<path d="M82.3648 46.9534C79.6383 47.2758 77.5198 47.9774 75.7338 49.134C73.5393 50.5656 72.0098 52.2438 70.8413 54.5476C69.5778 57.0411 69.1503 58.9847 69.1503 62.1608C69.1503 64.5974 69.3498 65.9437 70.0338 68.039C71.0693 71.2625 73.4158 74.0783 76.2658 75.5573C80.7213 77.8517 86.4879 77.937 90.8294 75.7564C92.1024 75.1212 92.7484 74.6661 93.7174 73.6896C94.6864 72.713 95.5224 71.5374 96.1874 70.2196C96.5769 69.4421 97.2799 67.7735 97.2799 67.6123C97.2799 67.5839 95.7124 67.5649 93.7934 67.5649H90.2974L90.0219 68.1148C89.6229 68.8828 88.4449 70.0299 87.6184 70.4376C86.1744 71.1676 84.6448 71.4426 82.9728 71.2719C81.6713 71.1487 80.9778 70.9685 80.1038 70.5419C78.4603 69.7455 77.3203 67.9726 76.9023 65.6024C76.8263 65.1568 76.7598 64.6069 76.7598 64.3793V63.9622H87.1624H97.5649L97.6219 63.7062C97.7169 63.3364 97.5839 59.6958 97.4319 58.558C97.1754 56.586 96.1494 54.2253 94.6199 52.0731C92.8149 49.5417 89.7749 47.655 86.6399 47.1336C85.7659 46.9819 83.0488 46.8681 82.3648 46.9534ZM85.3573 53.1919C87.0104 53.6375 88.1694 54.6045 88.9579 56.2068C89.3854 57.079 89.7749 58.3305 89.7749 58.8614V59.1269L83.3433 59.1079L76.9023 59.0795L76.9308 58.7477C76.9783 58.1504 77.2538 56.9084 77.4438 56.3869C77.5863 56.0172 77.8428 55.6664 78.3653 55.1165C79.4483 53.9788 80.3793 53.4384 81.8423 53.097C82.5738 52.9264 84.5688 52.9833 85.3573 53.1919Z" fill="white" fill-opacity="0.4"/>
<path d="M144.305 47.0008C142.319 47.1051 140.685 47.3706 139.317 47.8162C136.819 48.6221 134.814 50.0821 133.57 51.9783C132.838 53.0876 132.335 54.7088 132.335 55.9129V56.4723H136.277C138.443 56.4723 140.22 56.4438 140.22 56.3964C140.229 56.0362 140.543 54.9648 140.78 54.5002C141.35 53.372 142.253 52.642 143.469 52.3386C144.295 52.13 146.623 52.0921 147.402 52.2722C148.827 52.6041 149.767 53.2677 150.261 54.2727C150.499 54.7657 150.527 54.9079 150.527 55.856C150.527 57.1075 150.385 57.4678 149.729 57.9513C149.131 58.3874 147.953 58.833 146.974 58.9847C146.528 59.0606 144.789 59.2881 143.117 59.5062C138.728 60.0561 137.474 60.3405 135.755 61.1843C134.871 61.6109 134.539 61.8385 133.978 62.3789C132.268 64.0286 131.603 65.555 131.499 68.058C131.366 71.4426 132.506 73.8887 134.966 75.5005C135.954 76.1452 136.562 76.4106 137.835 76.7614C139.061 77.1027 140.115 77.2355 141.502 77.2355C145.245 77.226 148.228 76.2495 150.404 74.3248C150.841 73.9361 150.907 73.9077 150.964 74.0688C151.002 74.1731 151.04 74.4007 151.04 74.5903C151.05 75.0169 151.363 76.0693 151.572 76.3537L151.724 76.5718H155.714C157.899 76.5718 159.695 76.5434 159.695 76.5149C159.695 76.4865 159.59 76.2874 159.467 76.0693C159.115 75.4531 158.849 74.5239 158.678 73.3388C158.555 72.4287 158.517 70.779 158.46 62.8719C158.403 53.4953 158.403 53.4858 158.184 52.7842C157.747 51.3241 157.139 50.4235 155.914 49.409C154.745 48.4419 152.779 47.6171 150.955 47.3327C149.131 47.0482 146.186 46.906 144.305 47.0008ZM150.451 65.1947C150.423 66.4178 150.356 67.6123 150.29 67.8494C149.919 69.3284 148.589 70.8927 147.316 71.3763C145.616 72.021 142.661 72.0115 141.122 71.3573C140.647 71.1582 140.03 70.5325 139.678 69.8972C139.422 69.4327 139.412 69.3568 139.412 68.1717V66.9297L139.754 66.4178C140.229 65.7067 140.809 65.1663 141.388 64.8913C141.949 64.6259 143.991 64.1044 145.065 63.9622C148.105 63.564 149.435 63.2132 150.242 62.5969C150.423 62.4642 150.432 62.4737 150.47 62.7107C150.48 62.8529 150.48 63.9717 150.451 65.1947Z" fill="white" fill-opacity="0.4"/>
<path d="M178.41 46.9914C177.412 47.0862 176.709 47.2474 175.617 47.6266C173.413 48.3946 172.045 49.3901 170.895 51.0871C170.686 51.3905 170.477 51.637 170.43 51.637C170.373 51.637 170.335 50.8596 170.335 49.646V47.6551H166.44H162.545V62.1608V76.6666H166.535H170.525V68.2002C170.525 63.4502 170.572 59.4303 170.62 59.0321C170.867 57.0601 171.427 55.7328 172.396 54.7752C173.527 53.6754 174.895 53.154 176.7 53.154C179.417 53.154 180.87 54.3581 181.564 57.1834C181.773 58.0272 181.773 58.1409 181.801 67.2521L181.839 76.477H185.829H189.829L189.782 66.541C189.725 55.0028 189.715 54.8226 188.87 52.6705C188.29 51.182 187.72 50.2907 186.779 49.3616C186.105 48.6885 185.801 48.4704 185.06 48.1007C184.566 47.8636 183.796 47.5602 183.35 47.4275C182.067 47.0672 179.816 46.8681 178.41 46.9914Z" fill="white" fill-opacity="0.4"/>
<path d="M206.246 46.9629C204.517 47.0956 202.322 47.6265 201.021 48.2333C198.959 49.2004 196.803 50.9923 195.672 52.6894C194.57 54.339 193.516 56.8799 193.126 58.814C192.841 60.2551 192.765 63.6398 192.984 65.1662C193.535 68.9017 195.425 72.1442 198.351 74.3532C199.767 75.4246 202.246 76.5054 204.184 76.9036C206.911 77.4535 210.407 77.2354 212.896 76.3632C217.323 74.8083 220.03 71.5943 221.066 66.7116C221.17 66.2186 221.256 65.7351 221.256 65.6403C221.256 65.4886 221.009 65.4791 217.465 65.4791H213.675L213.608 65.9721C213.323 68.0579 212.174 69.7739 210.511 70.5893C209.4 71.1297 208.687 71.2909 207.386 71.3004C206.122 71.3004 205.229 71.0823 204.346 70.5514C203.377 69.9636 202.161 68.5225 201.638 67.3374C200.992 65.8678 200.679 63.7631 200.764 61.3549C200.831 59.7431 200.935 59.1364 201.391 57.6953C202.066 55.6095 203.633 53.7986 205.334 53.1634C206.911 52.5756 209.371 52.7652 210.758 53.5806C211.262 53.8745 211.974 54.5855 212.278 55.0975C212.582 55.6284 212.962 56.7756 213.038 57.4393L213.105 57.9892H217H220.885L220.828 57.4393C220.505 54.6329 219.46 52.2912 217.807 50.6699C216.658 49.5417 214.615 48.3376 212.943 47.7972C210.901 47.143 208.25 46.8112 206.246 46.9629Z" fill="white" fill-opacity="0.4"/>
<path d="M236.36 46.9914C231.828 47.5508 228.322 49.6271 225.976 53.135C224.978 54.614 224.133 56.6524 223.781 58.3685C223.373 60.3974 223.344 63.4692 223.715 65.5929C223.924 66.7875 224.503 68.6173 225.007 69.7171C225.89 71.6228 227.781 73.7844 229.614 75.0074C231.714 76.3917 234.469 77.1881 237.5 77.3018C240.264 77.4061 242.696 76.9321 244.957 75.8607C246.173 75.2729 246.886 74.7894 247.817 73.8982C248.862 72.8932 249.698 71.7839 250.363 70.504C250.857 69.5654 251.56 67.8873 251.56 67.6597C251.56 67.5934 250.448 67.5649 248.168 67.5649H244.767L244.482 68.1148C244.093 68.8733 242.943 69.9921 242.107 70.4282C240.692 71.1582 239.105 71.4521 237.452 71.272C235.419 71.0634 234.222 70.5704 233.205 69.5464C232.151 68.4846 231.419 66.7211 231.267 64.9008L231.201 64.1518H241.604H252.006L252.073 63.7915C252.225 62.8529 252.063 60.312 251.75 58.7382C251.085 55.4483 249.147 51.9404 246.943 50.0347C245.214 48.5557 243.067 47.5128 240.967 47.1336C239.941 46.9535 237.348 46.8776 236.36 46.9914ZM240.008 53.2014C241.642 53.647 242.639 54.5003 243.466 56.1405C243.732 56.6903 244.245 58.1694 244.387 58.8141L244.454 59.1269H237.984H231.514V58.852C231.514 58.4633 231.78 57.1644 231.951 56.7093C232.645 54.9079 234.336 53.5427 236.455 53.0971C237.243 52.9359 239.229 52.9928 240.008 53.2014Z" fill="white" fill-opacity="0.4"/>
</svg>
