<svg width="218" height="114" viewBox="0 0 218 114" fill="none" xmlns="http://www.w3.org/2000/svg">
<path d="M61.992 37.2451C57.1023 37.6243 53.5361 40.4101 52.4787 44.6667C52.2303 45.6803 52.2055 45.9249 52.1913 47.8458L52.1736 49.5754H49.5868H47V53.4032V57.2309H49.5903H52.1807V67.4737V77.7165L56.6623 77.7094L61.1403 77.6988L61.151 67.4631L61.1581 57.2309H65.4871H69.8162V67.4737V77.7165H74.3049H78.7936V63.646V49.5754H69.9758H61.1581V48.5511C61.1581 47.8175 61.1723 47.4524 61.2078 47.2646C61.4455 46.0312 62.3965 45.1487 63.7449 44.9148C63.9897 44.8723 64.5504 44.8616 66.9278 44.8616H69.8162V41.0339V37.2061L66.101 37.2097C64.0536 37.2132 62.2084 37.2309 61.992 37.2451Z" fill="white" fill-opacity="0.4"/>
<path d="M117.95 49.1501C113.149 49.4265 109.427 51.6417 107.159 55.5722C106.102 57.401 105.452 59.4957 105.186 61.927C105.115 62.5756 105.126 64.4895 105.204 65.1345C105.349 66.336 105.577 67.3603 105.935 68.4306C107.031 71.709 109.114 74.3636 111.896 76.0223C114.075 77.3266 116.694 78 119.564 78C124.788 78 129.159 75.7671 131.505 71.904C131.842 71.3511 132.374 70.2594 132.328 70.2169C132.31 70.1956 124.585 67.9911 124.39 67.9486C124.305 67.9309 124.287 67.9522 124.117 68.2959C123.606 69.3167 122.783 69.9901 121.566 70.3799C120.579 70.6954 119.202 70.7485 118.056 70.5182C115.87 70.0787 114.469 68.5724 114.011 66.18C113.983 66.0241 113.958 65.8682 113.958 65.8327C113.958 65.776 114.43 65.7725 123.375 65.7725C129.489 65.7725 132.803 65.7618 132.818 65.737C132.874 65.6484 132.938 64.851 132.959 64.0004C133.027 61.2926 132.633 59.0385 131.714 56.8836C130.82 54.796 129.408 52.9849 127.672 51.6984C125.171 49.8448 121.7 48.9374 117.95 49.1501ZM119.759 55.8841C120.945 56.0223 121.892 56.4476 122.673 57.2026C123.485 57.9858 123.975 59.0101 124.12 60.2329L124.145 60.4207H119.046H113.951L113.976 60.2683C114.025 59.96 114.242 59.1767 114.362 58.8612C115.005 57.2026 115.988 56.3307 117.602 55.994C118.244 55.8558 119.128 55.8132 119.759 55.8841Z" fill="white" fill-opacity="0.4"/>
<path d="M79.2548 49.5861C79.2548 49.6038 89.2187 77.4968 89.2648 77.6173L89.3038 77.7165H93.239C96.3368 77.7165 97.1777 77.7059 97.199 77.674C97.2664 77.5712 107.237 49.7668 107.216 49.742C107.205 49.7278 105.151 49.7207 102.656 49.7243L98.118 49.7349L95.6874 57.8937C94.3497 62.3807 93.2532 66.0489 93.2461 66.0418C93.239 66.0383 92.1426 62.3346 90.8119 57.8122L88.3848 49.5932L83.818 49.5825C81.3093 49.579 79.2548 49.579 79.2548 49.5861Z" fill="white" fill-opacity="0.4"/>
<path d="M134.936 63.6353L134.946 77.6988H139.506H144.066L144.084 69.9901L144.105 62.2814L144.183 61.7923C144.435 60.2506 144.889 59.2334 145.68 58.4324C146.248 57.8547 146.816 57.5464 147.703 57.3266C147.99 57.2593 148.118 57.2522 150.304 57.2416L152.6 57.2274V67.4702V77.7165H157.159H161.716L161.73 70.0681C161.74 61.6718 161.73 62.1716 161.953 61.165C162.461 58.9038 163.724 57.5676 165.629 57.2876C165.942 57.2416 166.428 57.2309 168.582 57.2309H171.158V57.0431C171.158 56.9439 171.19 55.3525 171.229 53.5095C171.268 51.6665 171.3 50.0256 171.3 49.8661V49.5683L169.27 49.5861C167.627 49.6002 167.159 49.6144 166.829 49.6605C165.353 49.8731 164.363 50.3374 163.454 51.2377C162.851 51.8366 162.447 52.4144 161.96 53.3607L161.719 53.8356V51.702V49.5719L155.662 49.5861C149.087 49.5967 149.378 49.5896 148.469 49.7916C146.983 50.1212 145.819 50.947 144.91 52.3222C144.666 52.6908 144.343 53.2614 144.194 53.5875L144.087 53.8108V51.6913L144.084 49.5754H139.506H134.929L134.936 63.6353Z" fill="white" fill-opacity="0.4"/>
</svg>
